<?xml version="1.0" encoding="utf-8"?>
<!-- Generator: Adobe Illustrator 28.3.0, SVG Export Plug-In . SVG Version: 6.00 Build 0)  -->
<svg version="1.1" id="Layer_1" xmlns="http://www.w3.org/2000/svg" xmlns:xlink="http://www.w3.org/1999/xlink" x="0px" y="0px"
	 viewBox="0 0 960 960" style="enable-background:new 0 0 960 960;" xml:space="preserve">
<style type="text/css">
	.st0{clip-path:url(#SVGID_00000168101381090477319980000005136332497497041057_);fill:#6645FA;}
	.st1{clip-path:url(#SVGID_00000168101381090477319980000005136332497497041057_);fill:#FFFFFF;}
	.st2{clip-path:url(#SVGID_00000168101381090477319980000005136332497497041057_);fill:#01008D;}
	.st3{clip-path:url(#SVGID_00000168101381090477319980000005136332497497041057_);fill:#3116C6;}
	.st4{clip-path:url(#SVGID_00000168101381090477319980000005136332497497041057_);}
	.st5{fill:#00BEC3;}
	.st6{fill:#FFC168;}
	.st7{clip-path:url(#SVGID_00000168101381090477319980000005136332497497041057_);fill:#FFC168;}
	.st8{fill:#FFA63C;}
	.st9{fill:#FF8A88;}
	.st10{fill:#FF6161;}
	.st11{fill:#0091B1;}
	.st12{fill:#FF628E;}
	.st13{fill:#FFB8B8;}
	.st14{clip-path:url(#SVGID_00000168101381090477319980000005136332497497041057_);fill:#00BEC3;}
	.st15{fill:#6645FA;}
	.st16{fill:#AEA6FF;}
	.st17{fill:#D2D2FF;}
	.st18{fill:#E7135A;}
	.st19{fill:#FF5C5C;}
	.st20{fill:#E86060;}
	.st21{fill:#FF7D7D;}
	.st22{fill:#EB4646;}
	.st23{fill:#FFFFFF;}
	.st24{fill:#332972;}
	.st25{fill:#161152;}
	.st26{fill:#C82797;}
	.st27{fill:#9B1074;}
	.st28{fill:#071630;}
	.st29{fill:#E037C4;}
	.st30{fill:#3116C6;}
</style>
<g>
	<g>
		<defs>
			<rect id="SVGID_1_" y="128.4" width="960" height="614.7"/>
		</defs>
		<clipPath id="SVGID_00000012464843615702388560000012439705700839426725_">
			<use xlink:href="#SVGID_1_"  style="overflow:visible;"/>
		</clipPath>
		<path style="clip-path:url(#SVGID_00000012464843615702388560000012439705700839426725_);fill:#6645FA;" d="M46.4,427.6
			C45,489,61.2,552.2,105.3,596.4c53.3,53.5,136.3,74.7,208.9,83.4c83.1,9.9,166.4,21.6,250,15.7C641,690,726.4,680.9,792,636.2
			c97.6-66.6,132.3-185.1,95-296.7c-51-152.6-227.2-228.7-375.3-157.8c-38.5,18.4-63.5,48.8-88.3,82.1
			c-15.9,21.3-33.8,33.9-61.2,27.4c-28.6-6.7-56.2-27.1-83.4-38.6c-60.6-25.7-132-17.8-178.8,30.9c-31.6,32.8-48.4,77.9-52.4,123.2
			C47,413.6,46.6,420.6,46.4,427.6z"/>
		<path style="clip-path:url(#SVGID_00000012464843615702388560000012439705700839426725_);fill:#FFFFFF;" d="M833.9,302
			c0.5-5.5-1.9-13.3-6.8-16.5c-4.8-3.1-9.6,0-14.4-0.2c0.4-8.2-10.7-18.2-17.1-21.5c-9.5-4.9-21.5-4.4-30.7,0.6
			c2.7-5.2,1.6-13.8-0.4-19c-5.9-15.7-22.6-25.3-38.5-27.9c-15.7-2.6-36.5,2.8-46.4,16c-6.3,8.3-10,18-14.5,27.3
			c-2.3-1.1-3.8-2.9-6.5-3.5c-5.7-1.3-11.4,0.8-16.3,3.5c-9.1,5-10.9,12.3-14,21.3c-8.7-3.6-18.7-2.7-25.6,4.3
			c-2.4,2.4-11.2,12.9-7.1,15.7c0.6,0.4,2.8,0,3.5,0c6.2,0,12.5,0,18.7,0c23,0,45.9,0,68.9,0c27,0,54,0,81,0c19.2,0,38.3,0,57.5,0
			C825.6,302,833.9,302.1,833.9,302z"/>
		<path style="clip-path:url(#SVGID_00000012464843615702388560000012439705700839426725_);fill:#FFFFFF;" d="M82.8,389.7
			c0,0,201,0,201.7,0c1.7,0-1.6-7.6-2-8.3c-2.6-5.2-6.6-10.4-11.7-13.3c-7.4-4.2-16.7-4.3-24.2-0.9c7.6-20-20.1-40.4-37.1-44.8
			c-16.3-4.3-39.6,5.8-40.2,25c-4.9-7.4-21.6-6-28.8-3.2c-10.1,4-16.9,17.9-18.3,28.3c-8.3-2.4-17.2-6.1-26.1-1.5
			C89.4,374.5,82.8,382.3,82.8,389.7z"/>
		<path style="clip-path:url(#SVGID_00000012464843615702388560000012439705700839426725_);fill:#01008D;" d="M286.5,751.1
			c0,0,199-322.2,395.7-306.4C879,460.5,964.1,755.5,964.1,755.5L286.5,751.1z"/>
		<path style="clip-path:url(#SVGID_00000012464843615702388560000012439705700839426725_);fill:#3116C6;" d="M723.2,750.8
			c0,0-199-337-395.7-320.5C130.8,447,45.7,755.5,45.7,755.5L723.2,750.8z"/>
		<g style="clip-path:url(#SVGID_00000012464843615702388560000012439705700839426725_);">
			<path class="st5" d="M781,475.4c1.4-5.9,2.2-12.2,4.4-17.8c0.1-0.3,0.5-0.2,0.5,0.1c0.2,5.4-0.1,10.7-0.3,16.1
				c-0.1,2.1-0.2,4.2-0.4,6.3c-0.4,3.5-0.6,2.8,1.5,5.3c3.9,4.6,8.5,8.9,12.7,13.3c3,3.2,6.3,7.4,9.7,10.7c1.2-3.6,2.4-7.3,3.7-10.8
				c2.7-7.6,5.5-13.9,10.2-20.5c3.2-4.5,7.4-5.7,12.8-5.3c1.6-2.7,2.9-5.6,4.6-8.2c1.6-2.4,3-3.7,2.6-6.4
				c-0.8-6.4-7.1-11.7-7.3-18.3c0-0.2,0.2-0.2,0.3,0c1.4,4.6,4.4,8.7,6.4,13.1c0.9,1.9,3,4.6,3.2,6.7c0.1,1.5-0.7,3.3-1.2,4.8
				c-1,2.9-2.4,6.1-4,9c5.4,1.2,10.8,3.5,16.3,2.9c10.1-1,9.9-13,17.3-16.8c0.1-0.1,0.2,0.1,0.1,0.2c-5.2,4.7-6.4,13.1-12,17.7
				c-3.4,2.8-7.7,3-12,2.5c-4.1-0.5-8.6-2-12.8-2.5c-0.5,0.1-1,0.1-1.4-0.1c-3.5-0.1-6.7,0.7-9.4,3.9c-5.7,6.8-7.9,16.6-10.5,24.9
				c-0.9,2.8-1.7,5.7-2.6,8.5c0,0.3-0.1,0.5-0.2,0.7c-1.3,4.1-2.5,8.2-3.8,12.3c5.2,1.3,10.3,3.5,15.5,3.9c4.5,0.4,4.2-0.2,6-3.6
				c1.4-2.6,2.8-5.2,4.4-7.7c5-7.7,11.9-9,19.7-12.8c0.1,0,0.2,0.1,0.1,0.1c-2.1,2.7-5.2,4.3-8,6.1c-4.3,2.8-6.3,5.4-8.9,9.8
				c-1.8,3.1-3.2,6.6-5.2,9.6c-2.3,3.5-4.4,3.4-8.5,2.8c-5.6-0.9-11-2.8-16.4-4.1c-1.9,6.2-3.7,12.4-5.4,18.6
				c-2,7.3-4.7,14.5-7.1,21.7c-3,9.1-5.1,18.4-9.1,27.1c-1,2.2-4.3,1.3-3.6-1.1c4.5-17,10.3-33.7,14.9-50.7
				c2.9-10.8,6.1-21.8,9.6-32.6c-4.3-3.5-8.2-8.7-11.9-12.5c-4.6-4.8-11.4-10.1-14.8-15.8C778.5,483.1,780.1,479.2,781,475.4z"/>
			<path class="st6" d="M779.5,451c3.2-4.3,9.6-5.3,13.3-1.1c3.5,4,1.9,9.6-2.1,12.5c-2.8,2.3-7.2,2.7-10.2,0.5
				C776.9,460.2,777,454.4,779.5,451z"/>
			<path class="st6" d="M832.6,432.7c1.2-1,2.7-1.6,4.4-1.5c4.6,0.3,7.4,6,6,10.1c-0.8,2.3-2.4,4.4-4.8,5.1
				c-1.6,0.5-3.1,0.3-4.4-0.4c-0.7-0.2-1.5-0.5-2.2-0.9c-1.2-0.8-2-2-2.3-3.3c0-0.1-0.1-0.2-0.1-0.3
				C828.3,438.5,829.9,434.5,832.6,432.7z"/>
			<path class="st6" d="M874.2,450.4c0.3-0.2,0.7-0.3,1-0.4c2.6-1,5.3-0.2,7.1,1.9c1.2,1.2,2.2,2.8,2.5,4.5c0.9,4.3-2.2,8.3-6.2,8.8
				c-3.5,1-7.3-1.1-8.6-4.5c-0.3-0.8-0.4-1.6-0.4-2.4C869.2,455.1,871,451.8,874.2,450.4z"/>
			<path class="st6" d="M850.2,503.3c0.3-0.6,0.7-1.2,1.2-1.7c0.1-0.2,0.3-0.5,0.4-0.7c1.2-1.7,3.1-2.8,5.1-2.9
				c1.4-0.4,2.9-0.6,4.4-0.2c1.6,0.4,2.4,1.3,3.2,2.4c0.2,0.2,0.4,0.4,0.6,0.6c2.2,2.4,3.4,6.1,1.7,9.1c-1.3,2.4-3.9,4.4-6.6,4.9
				c-0.3,0-0.6,0.1-0.8,0.1c-1.4,0.6-2.9,0.9-4.5,0.5C850.1,514.1,847.9,507.5,850.2,503.3z"/>
		</g>
		<g style="clip-path:url(#SVGID_00000012464843615702388560000012439705700839426725_);">
			<path class="st5" d="M113.2,534.4c-3.7-3.6-7.1-7.8-11.3-10.8c-0.2-0.2-0.5,0.1-0.4,0.3c2.3,4,4.9,7.7,7.6,11.5
				c1,1.5,2,2.9,3.1,4.3c1.9,2.3,1.7,1.7,1.4,4.5c-0.7,5.1-2.1,10.3-3.1,15.3c-0.7,3.7-1.1,8.2-2.1,12.1c-2.5-2.1-5.1-4.1-7.6-6.1
				c-5.4-4.2-10.3-7.5-16.6-10.1c-4.4-1.8-7.9-0.7-11.6,2c-2.4-1.2-4.6-2.7-7-3.8c-2.2-1-3.8-1.3-4.8-3.4c-2.3-4.9-0.2-11.6-3-16.5
				c-0.1-0.1-0.3,0-0.2,0.1c1,3.9,0.8,8.3,1.3,12.3c0.2,1.8-0.1,4.7,0.8,6.3c0.6,1.1,2,2.1,3,2.9c2.1,1.7,4.5,3.3,7,4.7
				c-3.3,3.3-6.2,7.4-10.4,9.5c-7.7,3.8-13.1-4.9-20.1-4.2c-0.1,0-0.1,0.2,0,0.2c5.9,1,10.5,6.5,16.7,7.3c3.7,0.5,6.9-1.4,9.8-3.7
				c2.7-2.2,5.3-5.4,8.1-7.6c0.4-0.1,0.7-0.4,1-0.7c2.4-1.7,5.2-2.5,8.5-1.5c7.2,2.3,13.2,8.4,18.9,13.2c1.9,1.6,3.8,3.3,5.7,4.9
				c0.1,0.2,0.3,0.3,0.5,0.4c2.8,2.4,5.5,4.7,8.3,7.1c-3.1,3.3-5.8,7.2-9.4,9.9c-3,2.3-3.1,1.8-6,0.2c-2.2-1.2-4.4-2.4-6.7-3.5
				c-7.1-3.3-12.7-1.1-20-0.3c-0.1,0-0.1,0.1,0,0.2c2.7,1,5.7,0.7,8.6,0.8c4.4,0.1,7,1,10.9,3c2.7,1.4,5.3,3.3,8.1,4.6
				c3.3,1.5,4.7,0.5,7.4-1.9c3.6-3.2,6.6-7,10-10.4c4.1,3.6,8.3,7.2,12.3,10.9c4.8,4.3,9.9,8.3,14.9,12.4c6.3,5.2,12,11,18.9,15.4
				c1.7,1.1,3.6-1,2.1-2.5c-11-10.2-22.7-19.6-33.7-29.7c-7-6.5-14.3-12.9-21.7-19.1c1.5-4.5,1.9-10,2.9-14.4
				c1.1-5.6,3.6-12.4,3.5-18.1C118.5,538.8,115.5,536.7,113.2,534.4z"/>
			<path class="st6" d="M103.2,516.2c-4.2-1.6-9.3,0.5-10,5.2c-0.7,4.5,3,7.8,7.2,8c3.1,0.4,6.4-1.3,7.5-4.3
				C109.2,521.6,106.5,517.5,103.2,516.2z"/>
			<path class="st6" d="M56.6,527.1c-1.3-0.2-2.7,0.1-3.8,0.9c-3.1,2.3-2.6,7.7,0.3,10c1.6,1.3,3.7,2.1,5.8,1.5
				c1.3-0.4,2.3-1.2,3-2.3c0.5-0.5,0.9-1,1.2-1.7c0.5-1.2,0.5-2.3,0.1-3.4c0-0.1,0-0.2,0-0.2C62.4,529.3,59.4,527.2,56.6,527.1z"/>
			<path class="st6" d="M34.8,558.7c-0.3,0-0.6,0.1-0.9,0.2c-2.3,0.5-3.9,2.3-4.2,4.6c-0.4,1.4-0.3,3,0.2,4.4c1.3,3.5,5.3,5,8.5,3.5
				c3-0.9,4.8-4.1,4.2-7.2c-0.1-0.7-0.4-1.3-0.8-1.9C40.5,559.8,37.7,558.3,34.8,558.7z"/>
			<path class="st6" d="M76.1,585.9c-0.5-0.3-1.1-0.5-1.6-0.6c-0.2-0.1-0.4-0.2-0.6-0.3c-1.7-0.7-3.5-0.6-5,0.2
				c-1.2,0.4-2.4,0.9-3.3,1.8c-1,1-1.1,2-1.2,3.2c-0.1,0.2-0.1,0.5-0.2,0.7c-0.5,2.8,0.3,5.9,2.9,7.3c2,1.1,4.8,1.4,7,0.5
				c0.2-0.1,0.4-0.2,0.6-0.3c1.3-0.2,2.5-0.7,3.4-1.7C81,593.6,79.6,587.9,76.1,585.9z"/>
		</g>
		<path style="clip-path:url(#SVGID_00000012464843615702388560000012439705700839426725_);fill:#FFC168;" d="M32.2,699.6
			c-4.5-17.8,8.5-44.4,29.6-37.2c6.6-38.5,51.5-57.8,86.3-46.8c41.8,13.3,53.6,52,56.5,92.1c0.8,12,1,24,1,36.1
			c-30.6,0-61.2,0-91.9,0c-19.9,0-39.7,0-59.6,0c-6.8,0-15.5,1.5-22,0.4c-12.9-2.1-13.4-18-10-29.3
			C22.8,712.5,32.3,699.6,32.2,699.6z"/>
		<path style="clip-path:url(#SVGID_00000012464843615702388560000012439705700839426725_);fill:#FFC168;" d="M510,699.5
			c-4.5-17.7,8.5-44.2,29.5-37c6.6-38.4,51.2-57.5,85.9-46.5c41.6,13.2,53.4,51.8,56.2,91.7c0.8,11.9,1,23.8,1,35.9
			c-30.5,0-60.9,0-91.4,0c-19.8,0-39.5,0-59.3,0c-6.7,0-15.4,1.5-21.9,0.4c-12.8-2.1-13.3-18-9.9-29.2
			C500.6,712.3,510,699.5,510,699.5z"/>
		<g style="clip-path:url(#SVGID_00000012464843615702388560000012439705700839426725_);">
			<path class="st6" d="M390.2,427.9c2.4,1.2,4.7,2.8,6.8,4.5c2.2,1.7,4.3,3.5,6.2,5.5c3.9,4,7.6,8.5,10.5,13.5
				c6.2,9.8,10.2,21.4,12.1,33.3c0.3,3,0.9,6,0.9,9l0.1,4.5c0,1.5,0.1,3.1,0,4.5c-0.2,5.8-0.6,11.4-1.2,16.8
				c-1.1,10.8-2.6,20.9-4,30.3c-1.2,9.4-2.1,18.2-1.9,26.3c0.1,4.1,0.4,8,1,11.8c0.5,3.8,1.4,7.4,2.5,10.9c2.1,7,5.2,13.5,9.3,19.9
				c4,6.4,8.9,12.5,14.5,18.6L396,680c-7.5-9.6-14.1-20.3-19.6-32l-2-4.4l-1.8-4.5c-1.2-3-2.2-6.2-3.2-9.3
				c-1.8-6.3-3.4-12.7-4.3-19.2c-1-6.5-1.4-13-1.4-19.4c0-6.4,0.4-12.7,1.3-18.8c1.7-12.2,4.6-23.5,8-33.9c3.4-10.5,7.4-20,11.2-29
				c1.9-4.5,3.7-8.8,5.2-13.1l2.1-6.1l0.5-1.5l0.4-1.5l0.9-3.1c2.3-8.4,3.7-17.4,3.2-26.8c-0.1-4.8-0.8-9.6-1.8-14.5
				C393.8,437.8,392.4,432.8,390.2,427.9z"/>
			<path class="st8" d="M390.2,427.9c3.5,3.7,6.4,7.9,8.9,12.4c2.5,4.4,4.7,9.1,6.2,13.9c3.4,9.6,4.7,19.9,4.5,30.1l-0.2,3.8
				l-0.1,1.9l-0.2,1.9c-0.3,2.5-0.5,5.1-1,7.6c-0.8,5-1.9,10-3.1,15c-2.4,9.9-5.2,19.7-7.5,29.6c-2.3,9.9-4.2,19.9-4.8,30.1
				c-0.4,5.1-0.4,10.1-0.1,15.2c0.3,5.1,1,10.1,2,15.1c0.9,5,2.5,9.8,4.1,14.6c1,2.3,1.8,4.8,2.9,7l1.6,3.5l1.7,3.4
				c4.7,9,10.5,17.3,17.1,25.1l-1.3,1.1c-6.5-7.9-12.4-16.4-17.1-25.5l-1.7-3.4l-1.6-3.5c-1.1-2.3-1.9-4.8-2.9-7.1
				c-1.6-4.9-3.1-9.8-4.1-14.8c-1-5-1.7-10.1-1.9-15.2c-0.3-5.1-0.2-10.2,0.2-15.3c0.7-10.2,2.7-20.3,5-30.2
				c2.4-9.9,5.2-19.7,7.7-29.6c1.2-4.9,2.4-9.9,3.2-14.9c0.4-2.5,0.7-5,1-7.6l0.2-1.9l0.1-1.9l0.2-3.8c0.3-10.1-1-20.4-4.3-30
				c-1.5-4.9-3.7-9.5-6.1-14C396.6,435.9,393.7,431.6,390.2,427.9z"/>
		</g>
		<g style="clip-path:url(#SVGID_00000012464843615702388560000012439705700839426725_);">
			<path class="st6" d="M723.3,369c2.4,1.2,4.7,2.8,6.8,4.5c2.2,1.7,4.3,3.5,6.2,5.5c3.9,4,7.6,8.5,10.5,13.5
				c6.2,9.8,10.2,21.4,12.1,33.3c0.3,3,0.9,6,0.9,9l0.1,4.5c0,1.5,0.1,3.1,0,4.5c-0.2,5.8-0.6,11.4-1.2,16.8
				c-1.1,10.8-2.6,20.9-4,30.3c-1.2,9.4-2.1,18.2-1.9,26.3c0.1,4.1,0.4,8,1,11.8c0.5,3.8,1.4,7.4,2.5,10.9c2.1,7,5.2,13.5,9.3,19.9
				c4,6.4,8.9,12.5,14.5,18.6l-51.2,42.8c-7.5-9.6-14.1-20.3-19.6-32l-2-4.4l-1.8-4.5c-1.2-3-2.2-6.2-3.2-9.3
				c-1.8-6.3-3.4-12.7-4.3-19.2c-1-6.5-1.4-13-1.4-19.4c0-6.4,0.4-12.7,1.3-18.8c1.7-12.2,4.6-23.5,8-33.9c3.4-10.5,7.4-20,11.2-29
				c1.9-4.5,3.7-8.8,5.2-13.1l2.1-6.1l0.5-1.5l0.4-1.5l0.9-3.1c2.3-8.4,3.7-17.4,3.2-26.8c-0.1-4.8-0.8-9.5-1.8-14.5
				C726.9,378.9,725.5,373.9,723.3,369z"/>
			<path class="st8" d="M723.3,369c3.5,3.7,6.4,7.9,8.9,12.4c2.5,4.4,4.7,9.1,6.2,13.9c3.4,9.6,4.7,19.9,4.5,30.1l-0.2,3.8l-0.1,1.9
				l-0.2,1.9c-0.3,2.5-0.5,5.1-1,7.6c-0.8,5-1.9,10-3.1,15c-2.4,9.9-5.2,19.7-7.5,29.6c-2.3,9.9-4.2,19.9-4.8,30.1
				c-0.4,5.1-0.4,10.1-0.1,15.2c0.3,5.1,1,10.1,2,15.1c0.9,5,2.5,9.8,4.1,14.6c1,2.3,1.8,4.8,2.9,7l1.6,3.5l1.7,3.4
				c4.7,9,10.5,17.3,17.1,25.1l-1.3,1.1c-6.5-7.9-12.4-16.4-17.1-25.5l-1.7-3.4l-1.6-3.5c-1.1-2.3-1.9-4.8-2.9-7.1
				c-1.6-4.9-3.1-9.8-4.1-14.8c-1-5-1.7-10.1-1.9-15.2c-0.3-5.1-0.2-10.2,0.2-15.3c0.7-10.2,2.7-20.3,5-30.2
				c2.4-9.9,5.2-19.7,7.7-29.6c1.2-4.9,2.4-9.9,3.2-14.9c0.4-2.5,0.7-5,1-7.6l0.2-1.9l0.1-1.9l0.2-3.8c0.3-10.1-1-20.4-4.3-30
				c-1.5-4.9-3.7-9.5-6.1-14C729.6,377,726.8,372.7,723.3,369z"/>
		</g>
		<g style="clip-path:url(#SVGID_00000012464843615702388560000012439705700839426725_);">
			<path class="st9" d="M231,417.6c7.4,6,14.8,11.8,22.1,17.9c7.9,6.9,14.5,16.4,17.8,27.5c1.7,5.5,2.7,11.4,2.9,17.4
				c0.1,6-0.6,12.2-2.1,18.3c-0.4,1.5-0.8,3.1-1.3,4.6l-1.6,4.5c-0.6,1.5-1.3,2.9-2,4.4l-0.5,1.1c-0.1,0.3-0.1,0.4-0.2,0.7l-0.4,1.2
				c-0.6,1.6-0.9,3.3-1.4,4.9c-0.3,1.7-0.7,3.3-0.8,4.9c-0.2,1.6-0.3,3.2-0.4,4.8c0,1.6-0.1,3.1,0,4.7c0,1.5,0.3,3.1,0.4,4.5
				c0.3,1.5,0.4,3,0.9,4.4c0.3,1.4,0.8,2.8,1.2,4.2c0.6,1.3,1,2.7,1.6,3.9c0.5,1.3,1.3,2.5,1.9,3.7c0.8,1.2,1.4,2.3,2.3,3.4l0.6,0.8
				l0.3,0.4l0.5,0.7l1.8,3l3.7,6l7.2,12c2.4,4,4.7,8,7.1,12.1c2.4,4,4.7,8.1,7,12.1l-72.2,31.2c-1.4-4.4-2.7-8.9-4-13.4
				c-1.3-4.5-2.7-8.9-3.9-13.5l-7.8-28.2c-7.2-25.9-3.6-53.5,9-74.8c1.5-2.7,3.3-5.2,5.1-7.7c1.9-2.4,3.7-4.8,5.8-7l1.5-1.6l0.7-0.8
				l0.4-0.4l1.8-1.4l1.7-1.6c0.6-0.5,1-1.2,1.6-1.7c2.1-2.4,3.9-5.2,5.3-8.4c1.4-3.2,2.3-6.6,2.8-10.3c0.5-3.7,0.5-7.5-0.2-11.4
				c-0.6-3.9-1.7-7.8-3.5-11.7L231,417.6z"/>
			<path class="st10" d="M231,417.6l17.5,21.6c5.7,7.3,9.7,16.1,10.9,25.3c0.6,4.6,0.7,9.3,0.1,13.9c-0.6,4.6-1.9,9.1-3.7,13.4
				c-0.5,1.1-0.9,2.2-1.4,3.2l-1.7,3.1l-3.8,5.8c-1.3,1.9-2.4,3.9-3.6,5.9c-1,2.1-2.1,4.1-2.9,6.3c-7.1,17-7.2,36.8-0.4,53.8
				c7.2,17,14.8,34,22.1,51l-1.5,0.7c-7.2-17.1-14.6-34-21.8-51.2c-6.8-17.4-6.5-37.4,0.8-54.6c0.8-2.2,2-4.2,3-6.3
				c1.2-2,2.3-4.1,3.6-6l3.8-5.8l1.7-3c0.6-1,1-2.1,1.5-3.1c1.8-4.2,3.1-8.7,3.7-13.3c0.6-4.6,0.6-9.2,0-13.8
				c-1.1-9.2-5-17.9-10.6-25.2L231,417.6z"/>
		</g>
		<g style="clip-path:url(#SVGID_00000012464843615702388560000012439705700839426725_);">
			<path class="st9" d="M579.8,447.9c9,3,18,5.8,27.1,8.9c9.9,3.6,19.4,10.2,26.4,19.4c3.6,4.6,6.6,9.7,8.9,15.3
				c2.3,5.6,3.8,11.6,4.5,17.9c0.1,1.6,0.4,3.1,0.4,4.7l0.1,4.8c-0.1,1.6-0.2,3.2-0.3,4.8l-0.1,1.2c0,0.3,0,0.5,0,0.7l0.1,1.3
				c0,1.7,0.3,3.4,0.4,5.1c0.3,1.7,0.5,3.3,1,4.9c0.3,1.6,0.9,3.1,1.3,4.6c0.6,1.5,1,3,1.7,4.4c0.6,1.4,1.3,2.8,2,4.1
				c0.8,1.3,1.5,2.6,2.4,3.8c0.8,1.2,1.8,2.4,2.6,3.5c1,1.1,1.9,2.2,2.9,3.1c0.9,1,2.1,1.9,3.1,2.8c1.1,0.8,2.1,1.7,3.3,2.4l0.8,0.5
				l0.4,0.3l0.7,0.5l2.8,2.2l5.5,4.3l11,8.7c3.7,2.9,7.3,5.8,10.9,8.8c3.6,2.9,7.3,5.9,10.8,8.8L654,654.3
				c-2.9-3.7-5.7-7.4-8.5-11.1c-2.8-3.7-5.7-7.4-8.4-11.2l-17.3-23.5c-15.9-21.6-22.3-48.8-18.1-73.1c0.5-3,1.3-6,2-9
				c0.9-2.9,1.7-5.8,3-8.6l0.9-2.1l0.4-1l0.3-0.5l1.2-2l1-2.1c0.4-0.7,0.6-1.5,0.9-2.2c1.1-3,1.8-6.3,2-9.7c0.2-3.4-0.2-7-1-10.6
				c-0.8-3.6-2.2-7.2-4.2-10.6c-2-3.4-4.4-6.7-7.4-9.7L579.8,447.9z"/>
			<path class="st10" d="M579.8,447.9l24,14c7.9,4.8,14.8,11.6,19.1,19.8c2.2,4.1,3.9,8.5,5,13c1.1,4.5,1.5,9.2,1.3,13.9
				c-0.1,1.2-0.1,2.3-0.2,3.5l-0.5,3.5l-1.5,6.8c-0.6,2.2-0.8,4.5-1.2,6.8c-0.2,2.3-0.5,4.6-0.5,6.9c-0.6,18.4,6.3,36.9,18.7,50.5
				c12.8,13.3,25.8,26.5,38.8,39.8l-1.2,1.2c-12.8-13.4-25.7-26.6-38.5-40.1c-12.5-13.9-19.3-32.7-18.6-51.3c0-2.3,0.3-4.6,0.5-7
				c0.4-2.3,0.7-4.6,1.3-6.9l1.5-6.8l0.5-3.4c0.2-1.1,0.2-2.3,0.3-3.4c0.2-4.6-0.2-9.2-1.2-13.7c-1.1-4.5-2.7-8.8-4.9-12.9
				c-4.3-8.2-11-15-18.9-19.8L579.8,447.9z"/>
		</g>
		<g style="clip-path:url(#SVGID_00000012464843615702388560000012439705700839426725_);">
			<path class="st5" d="M340.7,372c1.5,2.4,2.9,4.9,4.3,7.3l4,7.4c1.3,2.5,2.6,4.9,3.9,7.4c1.2,2.5,2.5,4.9,3.7,7.7
				c4.8,10.9,8.2,23.1,8.7,35.7c0.3,6.3-0.2,12.6-1.1,19c-1.1,6.3-2.4,12.6-4.5,18.8c-1.9,6.2-4.6,12.2-7.5,18.2
				c-3.1,5.8-6.6,11.6-10.7,16.9l-1.5,2l-0.8,1l-0.4,0.5c-0.1,0.1-0.1,0.2-0.2,0.3c-0.4,0.7-0.8,1.3-1.1,2l-0.9,2l-0.8,2.1
				c-0.9,2.8-1.3,5.6-1.4,8.3c-0.1,5.5,1.5,10.5,4.1,14.4l0.5,0.7l0.2,0.4l0.1,0.2l0.2,0.4l1.9,3.6l3.9,7.2l7.6,14.4
				c5.1,9.6,10.2,19.2,15.1,28.9l-73,29.1c-3.1-10.4-6-20.9-8.9-31.3l-4.4-15.7l-2.1-7.9l-2.7-9.8c-4.2-16.6-3.1-34.1,2.4-49.5
				c2.7-7.7,6.6-14.9,11.4-21.3c1.2-1.6,2.5-3.1,3.7-4.7c1.3-1.5,2.7-2.9,4-4.3c1.4-1.4,2.9-2.7,4.3-4l0.5-0.5l0.3-0.2l0.6-0.5
				l1.2-1c13.3-10.1,23.5-25.3,28.9-43.1c1.5-4.4,2.7-9.1,3.8-13.9l0.6-3.6l0.3-1.8l0.2-1.9l0.4-3.8c0.1-1.3,0.1-2.5,0.2-3.8
				c0.2-2.5,0.1-5.3,0.1-8.1c0-2.8,0-5.6,0-8.3l0.2-8.4C340.4,377.7,340.5,374.9,340.7,372z"/>
			<path class="st11" d="M340.7,372c2.6,10.5,5.3,20.9,7.7,31.5c0.3,1.3,0.6,2.6,0.8,4l0.6,4l0.3,2l0.2,2l0.3,4
				c0.2,5.4,0.2,10.8-0.4,16.2c-0.2,1.3-0.3,2.7-0.5,4l-0.7,4l-0.4,2l-0.5,2l-1,4c-1.5,5.2-3.2,10.4-5.5,15.3
				c-2.1,5-4.9,9.7-7.8,14.3c-3.1,4.5-6.3,8.8-10,12.8c-1.8,2-3.7,4-5.4,6c-0.8,1.1-1.7,2.1-2.5,3.2c-0.7,1.1-1.5,2.2-2.2,3.3
				c-2.8,4.6-4.9,9.5-6.3,14.7c-2.8,10.3-2.4,21.4,0.9,31.6c0.9,2.5,1.9,5,2.9,7.5l3,7.5l6,15l12.1,30.1l-1.5,0.6l-11.9-30.1
				l-6-15.1l-3-7.5c-1-2.5-2-5-2.9-7.6c-3.4-10.4-3.7-21.8-0.8-32.3c1.4-5.3,3.6-10.3,6.5-14.9c0.7-1.2,1.5-2.3,2.3-3.4
				c0.8-1.1,1.7-2.1,2.5-3.2c1.8-2,3.7-4,5.5-6c3.7-3.9,6.9-8.2,10-12.6c2.9-4.5,5.6-9.2,7.8-14.1c2.3-4.9,4-10,5.6-15.1
				c1.3-5.2,2.5-10.5,3-15.8c0.7-5.3,0.7-10.7,0.6-16.1l-0.3-4l-0.1-2l-0.3-2l-0.6-4c-0.2-1.3-0.5-2.6-0.8-4
				C345.8,393,343.1,382.6,340.7,372z"/>
		</g>
		<g style="clip-path:url(#SVGID_00000012464843615702388560000012439705700839426725_);">
			<path class="st12" d="M157.9,744.6c-27.9-9.5-11.3-39.4-11.3-39.4c-24.3-27.8,4.5-51.9,4.5-51.9c-37.6-29.5-4.5-75.6-4.5-75.6
				c-11.5-6.6-18.5-29.9-7.7-49.6c10.8-19.7-2.5-40.2-2.5-40.2s46.9-6.1,68.5,42c0,0,42.8-14.3,46.9,36.8c0,0,32.8,1.8,34.9,40
				c0,0,29.1,0,29.1,36.1c0,0,31.6,4.3,24.5,47c0,0,37,14,20.3,54.7H157.9z"/>
			<path class="st13" d="M263.6,736.4c-9.9-19.5-19.4-39.4-28.9-59.3c2.9-6.5,5.7-13.1,8.5-19.6c3.2-7.4,6.3-14.9,9.5-22.4
				c3.1-7.5,6.2-15,9.2-22.6c3-7.6,6-15.1,8.7-22.8c-3.7,7.2-7.3,14.5-10.8,21.9c-3.5,7.3-6.9,14.7-10.3,22.1
				c-3.4,7.4-6.8,14.8-10,22.2c-2.4,5.4-4.8,10.8-7.2,16.3l-8-16.8c2.9-6.1,5.7-12.1,8.5-18.2c3.2-6.9,6.2-13.8,9.3-20.7
				c6.1-13.9,12-27.8,17.5-41.9c-7.3,13.3-14.1,26.8-20.7,40.4c-3.3,6.8-6.6,13.6-9.8,20.5c-2.4,5-4.7,10.1-7,15.1l-11.1-23.3
				l2.6-9.2l3-11.1c2-7.4,3.9-14.8,5.7-22.2c1.8-7.4,3.6-14.9,5.3-22.4c0.8-3.7,1.6-7.5,2.4-11.2l1.1-5.7c0.2-0.9,0.3-1.9,0.5-2.8
				c0.1-0.9,0.3-1.9,0.3-2.9c0,0.9-0.4,1.9-0.6,2.8l-0.8,2.8l-1.7,5.5l-3.3,11l-6.5,22c-2.1,7.4-4.3,14.7-6.3,22.1l-3.1,11.1
				l-1.2,4.6l-2.5-5.3l-8.3-17.5l11-64.7l-13.9,58.7l-8.8-18.5c0.6-4.7,1.1-9.5,1.6-14.3c0.5-4.9,0.9-9.9,1.3-14.8
				c0.4-5,0.7-9.9,1-14.9c0.3-5,0.5-9.9,0.5-14.9c-1.1,4.9-1.9,9.8-2.7,14.7c-0.8,4.9-1.5,9.8-2.3,14.7c-0.6,4.9-1.4,9.8-1.9,14.8
				c-0.3,2.5-0.6,5-0.9,7.5l-12-25.2l0.4-1.6c0.7-2.9,1.4-5.7,2-8.6c0.6-2.9,1.2-5.8,1.7-8.7c0.5-2.9,1-5.8,1.4-8.7
				c0.4-2.9,0.8-5.9,0.9-8.8c-1.2,2.7-2.1,5.5-3.1,8.3c-0.9,2.8-1.8,5.6-2.6,8.5c-0.8,2.8-1.6,5.7-2.3,8.5c-0.4,1.7-0.8,3.4-1.2,5.1
				l-19.1-40.2c-0.2-0.4-0.6-0.6-1-0.4c-0.4,0.2-0.6,0.6-0.4,1l16.9,38.4c-0.1-0.1-0.2-0.1-0.4-0.2c-2.1-1.2-4.2-2.4-6.4-3.5
				c-2.1-1.2-4.3-2.2-6.5-3.3c-2.2-1.1-4.4-2.1-6.7-3c1.9,1.6,3.8,3.1,5.7,4.6c1.9,1.5,3.9,2.9,5.9,4.3c2,1.4,4,2.8,6,4.1
				c1.7,1.2,3.5,2.3,5.2,3.4l13.1,29.8c-2.1-0.9-4.1-1.7-6.2-2.6c-3.6-1.5-7.2-2.9-10.9-4.3c-3.6-1.4-7.3-2.8-11-4.1
				c-3.7-1.3-7.4-2.6-11.1-3.8c3.4,1.9,6.9,3.7,10.4,5.5c3.5,1.8,7,3.5,10.5,5.2c3.5,1.7,7,3.4,10.6,5c3.3,1.6,6.7,3.1,10.1,4.5
				l18.6,42.3l2.2,5c-3.1-1.6-6.1-3.2-9.2-4.7c-5.2-2.7-10.4-5.3-15.6-7.9c-5.2-2.6-10.5-5.1-15.7-7.6c-5.3-2.5-10.5-5-15.9-7.4
				c5,3.1,10,6,15,9c5,2.9,10.1,5.8,15.2,8.7c5.1,2.8,10.2,5.7,15.3,8.5c4.5,2.5,9.1,5,13.6,7.4l11.1,24.9c-3.9-0.3-7.8-0.7-11.7-1
				c-5.5-0.5-11-0.8-16.6-1.2c-5.5-0.4-11-0.7-16.6-1c-5.5-0.3-11.1-0.5-16.6-0.7c5.5,0.9,10.9,1.7,16.4,2.5
				c5.5,0.8,11,1.5,16.5,2.2c5.5,0.7,11,1.4,16.5,2c4.6,0.5,9.3,1,13.9,1.5l8.2,18.5c-5.1,0.2-10.3,0.5-15.4,0.8
				c-6.7,0.3-13.4,0.7-20.1,1.2c-6.7,0.4-13.4,0.9-20.1,1.4c-6.7,0.5-13.4,1.1-20.1,1.8c6.7,0.1,13.4,0.2,20.2,0.1
				c6.7,0,13.4-0.1,20.2-0.2c6.7-0.1,13.4-0.2,20.1-0.4c5.7-0.1,11.4-0.3,17.1-0.5c4.2,9.4,8.4,18.7,12.6,28.1l-85.9-1.8l87.8,5.9
				c4.1,9,8.2,18,12.4,27c0,0,0,0.1,0.1,0.1c1.1,2.2,3.9,3.1,6.1,2C263.9,741.4,264.8,738.7,263.6,736.4L263.6,736.4z"/>
		</g>
		<path style="clip-path:url(#SVGID_00000012464843615702388560000012439705700839426725_);fill:#00BEC3;" d="M522.5,745.5
			c-1.6-28.5-16-55.9-47.5-46.1c-1.6-25.5-21.5-53.8-51.8-42.9c-10.6-21.8-46.9-28.4-67.4-19.1c-19.6,8.9-26.9,28.6-27.7,48.3
			c-0.9,22.5-1,50.8,23.9,58.8c19.9,6.4,45.8,1,66.6,1C453.2,745.5,487.9,745.5,522.5,745.5z"/>
		<g style="clip-path:url(#SVGID_00000012464843615702388560000012439705700839426725_);">
			<path class="st15" d="M394.5,747.6c22.4-7.6,9.1-31.3,9.1-31.3c19.5-22.1-3.6-41.2-3.6-41.2c30.2-23.4,3.6-59.9,3.6-59.9
				c9.2-5.3,14.8-23.7,6.2-39.4c-8.7-15.6,2-31.9,2-31.9s-37.6-4.9-54.9,33.4c0,0-34.3-11.4-37.6,29.2c0,0-26.3,1.4-28,31.7
				c0,0-23.3,0-23.3,28.7c0,0-25.3,3.4-19.6,37.3c0,0-29.6,11.1-16.3,43.4H394.5z"/>
			<path class="st16" d="M390.5,665.2l-47.8,11.1l3.1-7c3.4-1.8,43.4-19.4,47.2-21.7c-4,1.8-42.9,16-45.2,17.2l1.7-3.8l6.4-14.6
				l39.8-17.8l-37.5,12.7l5.4-12.2c2.5-1.1,31.5-15.3,34-16.8c-2.8,0.9-30.7,12-32.2,12.7l9.9-22.5c1.3-0.8,2.6-1.7,3.9-2.5
				c1.5-1,3-2,4.5-3.1c1.5-1,3-2.2,4.4-3.3c1.5-1.1,2.9-2.3,4.3-3.5c-1.7,0.7-3.4,1.5-5.1,2.3c-1.7,0.8-3.3,1.6-4.9,2.5
				c-1.6,0.9-3.2,1.7-4.8,2.6c-0.1,0.1-0.2,0.1-0.3,0.2l12.7-28.9c0.1-0.3,0-0.6-0.3-0.8c-0.3-0.1-0.6,0-0.8,0.3l-14.4,30.4
				c-0.3-1.3-0.6-2.5-0.9-3.8c-0.5-2.2-1.1-4.3-1.7-6.4c-0.6-2.1-1.3-4.3-2-6.4c-0.7-2.1-1.4-4.2-2.3-6.3c0.1,2.2,0.4,4.5,0.7,6.7
				c0.3,2.2,0.7,4.4,1,6.6c0.4,2.2,0.8,4.4,1.3,6.5c0.5,2.2,1,4.3,1.5,6.5l0.3,1.2l-9,19c-0.2-1.9-0.4-3.8-0.7-5.7
				c-0.4-3.7-1-7.4-1.4-11.1c-0.5-3.7-1.1-7.4-1.7-11.1c-0.6-3.7-1.3-7.4-2.1-11.1c0,3.8,0.2,7.5,0.4,11.3c0.2,3.7,0.5,7.5,0.7,11.2
				c0.3,3.7,0.6,7.5,1,11.2c0.4,3.6,0.7,7.2,1.2,10.8l-6.6,14l-10.5-44.3l8.3,48.8l-6.3,13.2l-1.9,4l-0.9-3.4l-2.3-8.3
				c-1.5-5.6-3.2-11.1-4.7-16.7l-4.9-16.6l-2.5-8.3l-1.2-4.1l-0.6-2.1c-0.2-0.7-0.4-1.4-0.5-2.1c-0.1,0.7,0.1,1.4,0.2,2.2
				c0.1,0.7,0.2,1.4,0.4,2.1l0.8,4.3c0.6,2.8,1.2,5.7,1.8,8.5c1.2,5.6,2.6,11.3,4,16.9c1.4,5.6,2.8,11.2,4.3,16.8l2.2,8.4l1.9,6.9
				l-8.4,17.6c-1.8-3.8-3.5-7.6-5.3-11.4c-2.4-5.2-4.9-10.3-7.4-15.4c-5-10.2-10.1-20.5-15.7-30.5c4.1,10.7,8.6,21.2,13.2,31.6
				c2.3,5.2,4.6,10.4,7,15.6c2.1,4.6,4.2,9.2,6.4,13.8l-6.1,12.7c-1.8-4.1-3.6-8.2-5.4-12.3c-2.5-5.6-5-11.2-7.6-16.7
				c-2.6-5.6-5.2-11.1-7.8-16.6c-2.7-5.5-5.3-11-8.1-16.5c2.1,5.8,4.3,11.5,6.6,17.2c2.3,5.7,4.6,11.4,6.9,17
				c2.4,5.6,4.7,11.3,7.2,16.9c2.1,4.9,4.3,9.9,6.4,14.8c-1.4,2.8-2.7,5.7-4.1,8.6l-39.4-60.9l36.6,66.7c-1.3,2.8-2.7,5.5-4,8.2
				l-19.7-24L282,690.5l-5.7-6.7c-1.9-2.2-3.8-4.5-5.9-6.4c2,2.1,3.6,4.5,5.4,6.9l5.1,7.1l10.1,14.3l19.3,27.8
				c-1.8,3.7-3.6,7.3-5.4,10.9c-3-2.6-6-5.2-9.1-7.7c-4.3-3.6-8.6-7.2-12.9-10.8c-4.3-3.6-8.7-7.1-13.1-10.6
				c-4.4-3.5-8.8-7-13.4-10.2c4,3.9,8,7.8,12.1,11.6c4.1,3.8,8.1,7.7,12.3,11.5c4.1,3.8,8.2,7.6,12.4,11.3c3.2,2.9,6.5,5.8,9.7,8.7
				c-0.3,0.6-0.6,1.3-0.9,1.9l0,0c-0.9,1.7-0.2,3.8,1.5,4.6c1.7,0.9,3.8,0.2,4.6-1.5c0,0,0-0.1,0-0.1c0.3-0.7,0.6-1.4,1-2.1
				c5.9-0.5,11.8-1.1,17.7-1.7c6.5-0.6,12.9-1.4,19.4-2.2c6.5-0.8,12.9-1.6,19.4-2.5c6.5-0.9,12.9-1.8,19.3-3
				c-6.5,0.1-13,0.4-19.6,0.7c-6.5,0.3-13,0.8-19.5,1.2c-6.5,0.5-13,1-19.5,1.6c-5.1,0.5-10.2,0.9-15.2,1.4
				c2.1-4.6,4.3-9.3,6.4-13.9l66.2-8.5l-64.8,5.4c3.2-7,6.3-14.1,9.5-21.2c4.3,0.2,63.5-6.1,68.6-6.2c-5-0.5-63.4,3.3-67.3,3.1
				l6.2-14c3.5-0.4,52.2-10.4,56.3-11.1c-4.2,0.1-51.9,7.6-54.9,7.9l3.2-7.2L390.5,665.2z"/>
		</g>
		<g style="clip-path:url(#SVGID_00000012464843615702388560000012439705700839426725_);">
			<path class="st15" d="M898.9,744.6c26.1-8.9,10.6-36.8,10.6-36.8c22.7-26-4.2-48.5-4.2-48.5c35.1-27.5,4.2-70.6,4.2-70.6
				c10.7-6.2,17.3-27.9,7.2-46.4c-10.1-18.4,2.3-37.5,2.3-37.5s-43.8-5.7-64,39.3c0,0-39.9-13.4-43.8,34.4c0,0-30.6,1.6-32.6,37.3
				c0,0-27.1,0-27.1,33.7c0,0-29.5,4-22.9,43.9c0,0-34.5,13.1-19,51.1H898.9z"/>
			<path class="st16" d="M800.1,736.9c9.2-18.3,18.1-36.8,27-55.4c-2.7-6.1-5.3-12.2-8-18.3c-3-7-5.9-14-8.9-21
				c-2.9-7-5.8-14-8.6-21.1c-2.8-7.1-5.6-14.1-8.2-21.3c3.5,6.8,6.8,13.6,10.1,20.4c3.3,6.8,6.5,13.7,9.7,20.6
				c3.1,6.9,6.3,13.8,9.4,20.7c2.2,5.1,4.5,10.1,6.7,15.2l7.5-15.7c-2.7-5.7-5.3-11.3-7.9-17c-3-6.4-5.8-12.9-8.7-19.3
				c-5.7-13-11.3-25.9-16.3-39.2c6.8,12.4,13.1,25.1,19.4,37.7c3.1,6.4,6.2,12.7,9.2,19.1c2.2,4.7,4.4,9.4,6.6,14.1l10.4-21.8
				l-2.4-8.6l-2.8-10.4c-1.9-6.9-3.6-13.8-5.4-20.8c-1.7-7-3.4-13.9-4.9-20.9c-0.8-3.5-1.5-7-2.2-10.5l-1-5.3
				c-0.2-0.9-0.3-1.8-0.4-2.7c-0.1-0.9-0.3-1.8-0.2-2.7c0,0.9,0.4,1.7,0.6,2.6l0.8,2.6l1.5,5.1l3.1,10.3l6.1,20.6
				c1.9,6.9,4,13.7,5.9,20.6l2.9,10.3l1.1,4.3l2.4-4.9l7.7-16.3l-10.3-60.4l13,54.8l8.2-17.3c-0.5-4.4-1-8.9-1.4-13.3
				c-0.5-4.6-0.8-9.2-1.3-13.9c-0.3-4.6-0.7-9.3-0.9-13.9c-0.2-4.6-0.5-9.3-0.5-13.9c1,4.6,1.8,9.1,2.6,13.7
				c0.8,4.6,1.4,9.2,2.1,13.8c0.6,4.6,1.3,9.2,1.8,13.8c0.3,2.3,0.6,4.7,0.8,7l11.2-23.6l-0.4-1.4c-0.7-2.7-1.3-5.3-1.9-8
				c-0.6-2.7-1.1-5.4-1.6-8.1c-0.5-2.7-0.9-5.4-1.3-8.2c-0.4-2.7-0.7-5.5-0.9-8.3c1.1,2.6,2,5.2,2.9,7.8c0.9,2.6,1.7,5.3,2.5,7.9
				c0.7,2.6,1.5,5.3,2.2,8c0.4,1.6,0.8,3.1,1.1,4.7l17.8-37.6c0.2-0.4,0.6-0.5,0.9-0.4c0.4,0.2,0.5,0.6,0.4,1l-15.8,35.9
				c0.1-0.1,0.2-0.1,0.3-0.2c2-1.1,4-2.2,6-3.3c2-1.1,4-2.1,6.1-3.1c2.1-1,4.1-2,6.3-2.8c-1.7,1.5-3.5,2.9-5.3,4.3
				c-1.8,1.4-3.6,2.7-5.5,4c-1.9,1.3-3.7,2.6-5.6,3.9c-1.6,1.1-3.2,2.1-4.9,3.2l-12.2,27.8c1.9-0.8,3.8-1.6,5.8-2.4
				c3.4-1.4,6.8-2.7,10.2-4c3.4-1.3,6.8-2.6,10.3-3.8c3.4-1.2,6.9-2.4,10.4-3.5c-3.2,1.8-6.4,3.5-9.7,5.1c-3.3,1.7-6.5,3.3-9.8,4.8
				c-3.3,1.6-6.6,3.1-9.9,4.6c-3.1,1.5-6.3,2.9-9.4,4.2l-17.4,39.5l-2.1,4.7c2.9-1.5,5.7-3,8.6-4.4c4.8-2.5,9.7-4.9,14.6-7.3
				c4.9-2.4,9.8-4.8,14.7-7.1c4.9-2.3,9.9-4.7,14.8-6.9c-4.6,2.9-9.3,5.7-14,8.4c-4.7,2.8-9.4,5.5-14.2,8.1
				c-4.7,2.7-9.5,5.3-14.3,7.9c-4.2,2.3-8.5,4.6-12.7,6.9l-10.3,23.3c3.6-0.3,7.3-0.6,10.9-0.9c5.1-0.4,10.3-0.8,15.5-1.1
				c5.2-0.3,10.3-0.7,15.5-0.9c5.2-0.3,10.3-0.5,15.5-0.7c-5.1,0.8-10.2,1.6-15.3,2.3c-5.1,0.7-10.2,1.4-15.4,2
				c-5.1,0.6-10.3,1.3-15.4,1.8c-4.3,0.5-8.7,1-13,1.4l-7.7,17.3c4.8,0.2,9.6,0.4,14.4,0.7c6.3,0.3,12.5,0.7,18.8,1.1
				c6.3,0.4,12.5,0.8,18.8,1.3c6.3,0.5,12.5,1,18.8,1.6c-6.3,0.1-12.6,0.1-18.8,0.1c-6.3,0-12.6-0.1-18.8-0.2
				c-6.3-0.1-12.5-0.2-18.8-0.4c-5.3-0.1-10.6-0.3-15.9-0.5c-3.9,8.7-7.8,17.5-11.8,26.2l80.3-1.7l-82,5.5
				c-3.8,8.4-7.7,16.9-11.6,25.3c0,0,0,0.1-0.1,0.1c-1.1,2.1-3.6,2.9-5.7,1.9C799.8,741.6,799,739.1,800.1,736.9L800.1,736.9z"/>
		</g>
		<g style="clip-path:url(#SVGID_00000012464843615702388560000012439705700839426725_);">
			<path class="st12" d="M674.6,746.1c-27-9.1-11-37.8-11-37.8c-23.5-26.6,4.4-49.7,4.4-49.7c-36.4-28.2-4.4-72.4-4.4-72.4
				c-11.1-6.4-17.9-28.6-7.4-47.5c10.5-18.9-2.4-38.5-2.4-38.5s45.4-5.9,66.3,40.3c0,0,41.4-13.7,45.4,35.3c0,0,31.8,1.7,33.8,38.3
				c0,0,28.1,0,28.1,34.6c0,0,30.6,4.1,23.7,45c0,0,35.8,13.5,19.7,52.4H674.6z"/>
			<path class="st13" d="M679.5,646.6l57.7,13.4l-3.7-8.4c-4.2-2.2-52.4-23.4-57-26.2c4.9,2.2,51.8,19.3,54.5,20.7l-2-4.6l-7.8-17.7
				l-48-21.5l45.3,15.4L712,603c-3.1-1.3-38-18.5-41.1-20.3c3.4,1.1,37.1,14.5,38.9,15.3l-11.9-27.1c-1.6-1-3.2-2-4.7-3.1
				c-1.9-1.2-3.7-2.5-5.5-3.8c-1.8-1.3-3.6-2.6-5.4-3.9c-1.8-1.4-3.5-2.7-5.2-4.2c2.1,0.8,4.1,1.8,6.1,2.7c2,1,4,2,5.9,3
				c2,1,3.9,2.1,5.8,3.2c0.1,0.1,0.2,0.1,0.3,0.2l-15.4-35c-0.2-0.4,0-0.8,0.4-0.9c0.4-0.2,0.8,0,0.9,0.3l17.4,36.7
				c0.4-1.5,0.7-3.1,1.1-4.6c0.7-2.6,1.4-5.2,2.1-7.8c0.8-2.6,1.5-5.1,2.4-7.7c0.9-2.5,1.7-5.1,2.8-7.6c-0.2,2.7-0.5,5.4-0.8,8.1
				c-0.4,2.7-0.8,5.3-1.3,8c-0.5,2.6-1,5.3-1.6,7.9c-0.6,2.6-1.2,5.2-1.8,7.8l-0.4,1.4l10.9,23c0.3-2.3,0.5-4.6,0.8-6.9
				c0.5-4.5,1.2-9,1.7-13.5c0.7-4.5,1.3-9,2.1-13.4c0.8-4.5,1.5-8.9,2.5-13.4c0,4.5-0.2,9.1-0.5,13.6c-0.2,4.5-0.6,9-0.9,13.5
				c-0.4,4.5-0.7,9-1.2,13.5c-0.4,4.3-0.9,8.7-1.4,13l8,16.9l12.7-53.5l-10.1,58.9l7.6,15.9l2.3,4.8l1.1-4.1l2.8-10.1
				c1.8-6.7,3.8-13.4,5.7-20.1l5.9-20.1l3-10l1.5-5l0.7-2.5c0.2-0.8,0.5-1.7,0.6-2.5c0.1,0.9-0.1,1.7-0.2,2.6
				c-0.1,0.9-0.3,1.7-0.4,2.6l-1,5.2c-0.7,3.4-1.4,6.8-2.2,10.2c-1.5,6.8-3.2,13.6-4.8,20.4c-1.7,6.8-3.4,13.5-5.2,20.3l-2.7,10.1
				l-2.3,8.3l10.1,21.2c2.1-4.6,4.2-9.2,6.4-13.8c2.9-6.2,5.9-12.4,8.9-18.6c6.1-12.4,12.2-24.7,18.9-36.8
				c-5,12.9-10.4,25.6-15.9,38.2c-2.8,6.3-5.6,12.6-8.5,18.9c-2.5,5.6-5.1,11.1-7.7,16.6l7.3,15.3c2.2-4.9,4.3-9.9,6.5-14.8
				c3-6.8,6.1-13.5,9.1-20.2c3.1-6.7,6.2-13.4,9.4-20.1c3.2-6.7,6.4-13.3,9.8-19.9c-2.5,7-5.3,13.8-8,20.7
				c-2.7,6.9-5.5,13.7-8.4,20.6c-2.9,6.8-5.7,13.6-8.6,20.4c-2.6,6-5.1,11.9-7.8,17.8c1.7,3.4,3.3,6.9,5,10.3l47.6-73.5l-44.2,80.6
				c1.6,3.3,3.2,6.6,4.8,10l23.8-29l13.5-16.2l6.9-8c2.3-2.6,4.6-5.4,7.2-7.8c-2.4,2.6-4.4,5.5-6.5,8.3l-6.2,8.6l-12.2,17.2
				l-23.3,33.5c2.2,4.4,4.3,8.8,6.5,13.2c3.6-3.1,7.3-6.3,11-9.3c5.1-4.4,10.4-8.7,15.6-13c5.2-4.3,10.5-8.5,15.8-12.8
				c5.3-4.2,10.6-8.4,16.1-12.3c-4.9,4.7-9.7,9.4-14.6,14.1c-4.9,4.6-9.8,9.3-14.8,13.8c-5,4.6-10,9.1-15,13.6
				c-3.9,3.5-7.8,7-11.7,10.5c0.4,0.8,0.7,1.5,1.1,2.3l0,0c1,2,0.2,4.5-1.8,5.6c-2,1-4.5,0.2-5.6-1.8c0,0,0-0.1-0.1-0.1
				c-0.4-0.8-0.8-1.7-1.2-2.5c-7.1-0.6-14.2-1.4-21.3-2.1c-7.8-0.8-15.6-1.7-23.5-2.6c-7.8-1-15.6-1.9-23.4-3
				c-7.8-1.1-15.6-2.2-23.4-3.6c7.9,0.1,15.8,0.5,23.6,0.9c7.9,0.4,15.7,0.9,23.6,1.5c7.8,0.6,15.7,1.2,23.5,1.9
				c6.1,0.6,12.3,1.1,18.4,1.7c-2.6-5.6-5.2-11.2-7.7-16.8l-80-10.2l78.3,6.5c-3.8-8.5-7.6-17-11.5-25.6c-5.2,0.2-76.7-7.3-82.9-7.4
				c6.1-0.6,76.5,4,81.2,3.8l-7.5-16.9c-4.2-0.4-63-12.5-68-13.4c5,0.1,62.7,9.2,66.3,9.5l-3.9-8.7L679.5,646.6z"/>
		</g>
	</g>
	<g>
		<g>
			<ellipse class="st17" cx="452.6" cy="801.7" rx="82.8" ry="13.4"/>
			<path class="st17" d="M726,830c0,7.2-43.5,13-97.2,13s-97.2-5.8-97.2-13c0-7.2,43.5-13,97.2-13S726,822.8,726,830z"/>
		</g>
		<g>
			
				<ellipse transform="matrix(0.3298 -0.9441 0.9441 0.3298 121.4932 609.7609)" class="st12" cx="490.2" cy="219.3" rx="48.8" ry="62.6"/>
			
				<ellipse transform="matrix(0.3298 -0.9441 0.9441 0.3298 120.2276 607.1416)" class="st18" cx="487.7" cy="218.9" rx="34.8" ry="44.6"/>
			<path class="st9" d="M522.1,288.6c-1.1,4.6-8.2,6.4-12.3,7.6c-8.2,2.4-16.1,4.1-24.5,5.3c-10.2,1.5-19.8,5.2-30.2,5.1
				c-4.9,0-11.1,1.4-14.9-2.4c1.9-2.3,4.4-3.9,6.5-5.9c3-3,5.1-7,7.6-10.5c4.7-6.9,9-15.1,9.7-23.4c0.3-3.1,0-6.1-0.8-9.1
				c-0.5-1.9-1.2-3.6-1.8-5.4c-0.9-2.5-1.8-4.9-2.3-7.6c-0.5-3.2-0.3-6.2,0-9.5c0.3-2.9,1.6-7.9,1.2-10c-1-18.8,18.4-33.3,36.2-29.7
				c16.1,3.2,18.4,23.3,18.4,36.9c0,2.9,0.4,4,1.3,6.3c0.9,2.2,1.9,2.4,1.2,5.1c-1,3.6-5.3,9.8-8.9,10.6c-2.3,0.6-3-1-5.2,1
				c-0.7,0.7-1.4,2-2.1,3.3v0c-0.4,0.7-0.7,1.5-1,2c-2.4,4.4-3.7,8.5-2.6,13.7c0.9,4.4,3.3,7.6,6.7,9.8c1,0.7,2.1,1.3,3.3,1.8
				C512.3,285.8,516.9,288.8,522.1,288.6z"/>
			<path class="st19" d="M504.4,282c-4.7,1.5-10.5-0.3-13.5-4.4c-2.5-3.6-2.1-9-6.9-10.5c-5.1-1.6-10.3,2.2-15.6,0.1
				c-1.4-0.6-2.9-1.7-4.4-2.9c0.3-3.1,0-6.1-0.8-9.1c-0.5-1.9-1.2-3.6-1.8-5.4c2.1,1.2,4.2,2.6,6,4.3c9.8,9.4,22.4,7.5,33.9,2.4
				c-0.4,0.7-0.7,1.5-1,2c-2.4,4.4-3.7,8.5-2.6,13.7C498.5,276.5,500.9,279.7,504.4,282z"/>
			<path class="st9" d="M537.8,339.6c0,0,28.3,60.6,37.3,65.8c9.1,5.2,89.5,14.4,89.5,14.4l10-12.1L600,385.2
				c-6.7-2-12.4-6.5-15.9-12.5l-16.3-27.5c-5.9-10-9-21.3-9-32.9v-0.5c0-2.3-0.5-4.6-1.4-6.7l-1.9-4.5c-2.9-6.8-10.4-10.6-17.6-8.8
				l-8.9,2.1L537.8,339.6z"/>
			<path class="st9" d="M660.9,418.9c0.7,0,1.8,1.2,2.5,1.9c1.3,1.3,2.5,2.1,4.2,2.8c4.2,1.6,8.1,1.4,11.8,4.2
				c5.6,4.3,4.5,11.8,4.9,18c0.3,3.7,1.9,2.1,3.5,0.6c0.1,1.8-0.6,8.6,2.1,8.3c3.2-0.4,1.6-6.6,3.4-8.3c0.1,1.7-0.3,10.3,3.2,8
				c1.5-1,1.5-4.1,1.6-5.7c0.3-3.1,0.4-6.2,0.4-9.3c0-1.5-0.3-4.6,0.5-5.8c1.2,3.5,3,6.9,4.2,10.4c0.6,1.6,2.8,6.4,5.4,4.9
				c2.3-1.4-0.7-6.9-1.5-8.6c-1.3-2.9-2.3-6-3.6-8.9c-2.4-5.4-3.4-11.4-7.7-15.6c-2.9-2.8-6.1-2.9-9.6-4.5c-3.2-1.5-7-2.8-10.3-3.8
				c-3.2-1-10.7-2.8-14.1-1.8c-2.9,0.8-0.4,4.8-1.1,7.8C660.4,415,659.7,417.9,660.9,418.9z"/>
			<path class="st9" d="M454.3,411.1c-1.1,2.5-1,6-1.8,8.8c-1.2,4.2-2.5,8.4-5.3,11.8c6.4,7,16.9,10,26.2,9.9
				c9.4,0,18.8-2.3,28.2-2.7c4.5-0.2,8.7-1.3,13.1-1.6c4.5-0.4,9.6-1.5,12.7-4.7c1-1,2.6-2.2,3-3.5c-1.6-3.5-2.4-6.9-2.5-10.8
				c0-2.8,0-5.5,0.9-8.1c0.4-1.2,1.4-2.4,1.4-3.7c-1.7,0-3.2-0.4-4.8-0.9c-7-2.4-14.7-3.4-22-4.5c-9.1-1.4-18.1,0.4-27.1,1.9
				c-4.6,0.8-9.2,1.4-13.7,2.9c-2.5,0.8-3.9,2.6-6,3.7C455.9,410.3,454.8,410.6,454.3,411.1z"/>
			<path class="st20" d="M447.7,422.2c3.3-5.6,7.8-9.4,6.6-16.6c-1.2-6.9-4.7-13.4-5.5-20.4c-0.3-3-0.2-5.9-0.8-8.8
				c-1.6-7.1-0.9-14.7-2.7-21.8c-1.8-6.9-1.6-17.6-9.2-20.9c-2.2-0.9-5.9-1.6-7.5,0.6c-1.4,2-1,6.3-1.1,8.6
				c-0.2,5,0.3,10.1,0.7,15.1c0.4,5.1,0.9,10.1,1.4,15.1c0.5,5.2,0.4,10.5,1.3,15.6c1,5.4,2.5,10.3,4.6,15.3c1.2,2.9,2,6.1,3.5,8.9
				c1.3,2.6,3.6,4.4,5.5,6.4C445.2,420.1,446.3,421.6,447.7,422.2z"/>
			<path class="st6" d="M542.2,364.8c-1,4.7-2.4,9.2-3.9,13.8c-1.5,4.7-2.9,9.3-3.8,14.1c-1.3,7.2-1.2,14.1-1.7,21.3
				c-9.5-6.3-24.3-6.3-35.6-4.7c-5.4,0.8-10.8,0.5-16.1,0.4c-4.7-0.1-9.3-0.3-14,0.3c-4.6,0.6-9.2,1.9-13.6,3.2
				c-0.7-10.7-0.3-21.3-3.4-31.7c-2.8-9.7-8.5-18.2-9.5-28.4c-0.5-5.2-2.1-7.9-4.4-11.8c-0.6-0.9-1.2-1.9-1.8-3.1
				c-2.8-5.1-11-18.2-8.9-24c1.4-4,11.8-10.3,15.5-11.3c1.6-2.7,5.4-0.4,7.6,0c3.6,0.7,7.3,0.2,10.9-0.7c5.6-1.4,10.7-2.7,16.5-3
				c5-0.3,9.6-2.2,14.6-2.8c8.5-1.1,17.1-1.8,25-5.1c4.1-1.7,5.7-4.7,9.7-6.4c12.9-5.5,13.5,22.1,15.1,29.6c0.7,3.2,1.3,6.4,1.8,9.7
				C544.5,337.8,545,351.5,542.2,364.8z"/>
			<path class="st8" d="M542.2,364.8c-1,4.7-2.4,9.2-3.9,13.8c-2.3-1.6-4.2-4.3-7-4.3c-1.5,0-2.1,1.6-3.9,0.6
				c-1.6-0.9-3.8-5.8-5.3-7.3c-5-5-8.6-3.2-15.1-2.5c-6.8,0.7-11.5-4.5-18.5-3.4c-5.5,0.8-10.3,3.9-15.3,6.2
				c-3.2,1.5-8.5,3.5-10.4,6.5c2.4,1.6,19.5,0.5,15,5.1c-3.6,3.7-11.6-0.2-13.5,5.6c-1.6,4.7,2.7,10.9,4.9,14.7
				c3.1,5.2,7.8,7.1,12,10c-4.7-0.1-9.3-0.3-14,0.3c-4.6,0.6-9.2,1.9-13.6,3.2c-0.7-10.7-0.3-21.3-3.4-31.7
				c-2.8-9.7-8.5-18.2-9.5-28.4c-0.5-5.2-2.1-7.9-4.4-11.8c0.5-2.6,1.4-5,2.8-6.8c3.2,3.1,3.3,9.6,7,12.1c4.1,2.8,1.3-9.1,4.6-10.4
				c0.4,6.8,1.3,23,10.5,25.5c14.9,3.9,25.5-15.8,40.8-12.2c6.9,1.6,13.9,7,20.8,2.5c3.6-2.3,6.4-6.5,7.4-10.7
				c0.9-3.7,0.3-8.7,2.2-11.8c0.9,2.6,0,6.5,2,8.6c4.5-1.4,6.3-7.2,7.3-11.4c0.1-0.6,0.3-1.5,0.6-2.6
				C544.5,337.8,545,351.5,542.2,364.8z"/>
			<path class="st21" d="M524.5,667.3l-15.4,10.8l-30.9,21.7c-6,4.3-11.6,9.1-16.6,14.5l-19,18.4l-12,11.5l-12.9-15.9l10.7-14.2
				l10.4-13.8l5.1-6.8c5.8-6.9,12.4-13.2,19.7-18.7l4.2-3.2C516,661.5,524.5,667.3,524.5,667.3z"/>
			<path class="st22" d="M524.5,667.3l-15.4,10.8c-0.9,0.1-1.8,0.2-2.7,0.4c-5.9,1.1-10.9,3.6-16.4,5.8c-16.1,6.6-34.4,20.7-51.3,16
				l5.1-6.8c5.8-6.9,12.4-13.2,19.7-18.7l4.2-3.2C516,661.5,524.5,667.3,524.5,667.3z"/>
			<path class="st9" d="M485.1,783.4l-18.9-12.1c-0.7-2.4-1.5-5.4-2.3-8.8c-4.9-20-12.1-54.8-16.8-77.8c-2.7-13.5-4.6-23-4.6-23
				h34.5l1,26.8l2.2,61.3c0.1,3.5,0.6,7.1,1.3,10.5l0.9,5.6L485.1,783.4z"/>
			<path class="st19" d="M478,688.4c-8.1,1.3-15-4.6-23-4.6c-2.7,0-5.3,0.3-7.9,0.9c-2.7-13.5-4.6-23-4.6-23h34.5L478,688.4z"/>
			<path class="st8" d="M438.4,798.9c0.5,1.2-1.3,3.6-1.5,4.9c-0.2,1.5-0.6,4.1,0.6,5.3c1,1.1,3.2,1,4.6,1.2c3,0.5,6.1,1.1,9.2,1.4
				c6.7,0.6,16.4,2.2,21.1-3.9c1.5-1.9,2.4-3.6,4.8-4.3c2.4-0.7,4.8-0.4,7.3-0.7c5.9-0.7,6.9-6.9,5.5-11.7c-0.5,0.7-1.5,0.7-2.3,0.9
				c-5.4,1.3-11.4,1.6-16.9,2.9c-5.9,1.4-11.7,3.7-17.7,4.7c-3.4,0.5-5.6-0.3-8.7-0.7C442.6,798.8,441,799.4,438.4,798.9z"/>
			<path class="st23" d="M442.5,732.8l-12,11.5l-12.9-15.9l10.7-14.2c-1.1,3.8,0.6,7.7,3,11c1.9,2.5,4.4,5.1,7.3,6.4
				C439.6,731.9,441.3,732.2,442.5,732.8z"/>
			<path class="st23" d="M485.1,783.4l-18.9-12.1c-0.7-2.4-1.5-5.4-2.3-8.8c0.9,0,1.8,0.1,2.3,0.1c3-0.1,5.9-0.1,8.8,0.8
				c2.8,0.8,4.7,2.3,7.4,2.6L485.1,783.4z"/>
			<path class="st6" d="M468.1,767.3c-5.6-0.9-8.7,5.7-11.5,9.7c-2.5,3.4-4.5,6.5-7.4,9.6c-2.5,2.6-5.4,4.7-7.9,7.2
				c-1.1,1.1-2.7,2.9-2.8,4.6c-0.2,2.7,2.7,4.7,5,5.3c7.2,1.8,16.3,2.2,23.3-0.9c3.8-1.6,6.7-4.9,10.8-6c4.1-1.1,10.3,0,12.3-4.6
				c1.7-3.9,0.1-8-0.7-11.9c-0.3-1.7-0.3-5.8-2.8-5.2c-1.3,0.3-2,1.5-3.3,1.7c-2.1,0.3-3.9-1.5-5.3-2.8c-1.7-1.5-3.4-3.4-5.4-4.6
				C471,768.7,469.6,768.4,468.1,767.3z"/>
			<path class="st8" d="M403.4,711.5c-1-0.4-2.7,0.2-3.7,0.7c-2.5,1.1-3.4,3.8-3.7,6.3c-1,6.5,1.6,13.1,4.2,19
				c3.3,7.2,3.5,15.2,4,23c0.4,6.5,1.2,13.2,3.2,19.5c1.2,3.9,2.6,7.5,4.9,10.8c1.5,2.2,2.9,5.8,5.2,7.2c1.9,1.1,5.3,1.4,7.4,0.9
				c1-0.3,2.8-1,3.3-1.9c0.4-0.6,0.4-0.6,0.2-1.3c-0.2-0.8-1.4-1.6-1.8-2.3c-1-1.4-2.1-2.9-3-4.4c-6.1-10-7.4-21.6-8-33
				c-0.3-6.3,0.2-13.2-1.5-19.3c-1.3-4.5-4-8.3-5.2-12.8C407.8,719.4,407.8,714.6,403.4,711.5z"/>
			<path class="st6" d="M433.1,786.1c-0.9-7.1,1.2-14.9,1.9-22c0.4-4.2,0.7-8.5,1.2-12.7c0.3-2.4,1.3-6.3,0.4-8.6
				c-0.6-1.6-2.3-2-3.7-2.4c-2.7-0.7-5-1.7-6.5-4.2c-3.2-5-4.4-10.1-2.3-15.7c0.9-2.5,2.4-4.2,4-6.2c0.6-0.8,3.4-4,1.8-4.7
				c-2.3-1.1-4.9,0.8-7.6,0.6c-4.6-0.4-8.9,0.1-13.3,0.5c-1.3,0.1-3.2-0.3-4.5,0.2c-1.4,0.5-1.7,2.3-2,3.8
				c-1.2,6.3-0.3,13.2,1.6,19.2c2.5,8.1,5.4,15.9,5.9,24.4c0.4,7.4,0.9,14.7,3.6,21.7c2.2,5.6,5.8,18,13.8,17.1
				C433.4,796.3,433.8,791.1,433.1,786.1z"/>
			<path class="st24" d="M551.9,656.6c-0.1,6.7-4.7,7.1-11,8c-6.8,1-13.7,2.2-20.6,3.4c-24.8,4-50.3,7.3-74.5-0.9
				c-3.7-1.3-7-2.4-10.8-2.9c-2.2-0.3-4.8,0.1-6.7-1c-3.8-2-2.9-4.2-2.2-7c0.4-1.3,0.7-2.8,0.4-4.4c-4.6-1.2-9.4-1.6-14.3-2.5
				c-1.3-0.2-2.9-0.5-4.8-0.9c-6.6-1.5-15.5-4.3-17.8-9.3c-1.6-3.6,1.2-9.1,1.8-12.8c1.4-7.8,2.6-15.7,3.5-23.7
				c3-27.7,8.6-55.3,15-82.3c2.7-11.4,5.6-22.6,7.8-34.1c1.3-7.1,3.3-14,6.4-20.4c4.2-8.9,9.9-16.8,14.8-25.4
				c2.6-4.6,7.9-10.9,8.6-15.5c4.7,1.3,9.6,3.7,14.2,5.5c4,1.6,8.7,1.4,12.9,2.1c6.9,1,12,2.5,19,1.6c13-1.5,25.4-3.7,37.8-6.4
				c0.6,6.1,3.6,14.2,4.3,21.6c1.6,16.7,3.6,33.3,4.7,50c1.5,22.6,1.9,45.2,3,67.8v0c0.7,15.8,1.7,31.5,3.7,47.2
				C548.7,627.9,552.1,643,551.9,656.6z"/>
			<g>
				<path class="st25" d="M433.8,599.5c-1.2,13.9-0.3,28.1-2.5,41.8c-0.6,3.9-2.5,9.6-5.3,15c0.4-1.3,0.7-2.8,0.4-4.4
					c-4.6-1.2-9.4-1.6-14.3-2.5c-1.3-0.2-2.9-0.5-4.8-0.9c0.1-6.5,1.1-13.2,1.4-19.5c0.6-10.9,0.8-21.9,1.8-32.7
					c1.4-13.8,1.4-28.1,1.9-42c0.4-10.6-0.2-24.5,3-34.1c2.6,9.8,0.9,20.8,1.3,31c0.5,11.5,1.9,23.2,3.1,34.6
					c0.6,5.9,2.6,11.8,3.2,17.7c0.4,4.3-1.2,10.6,1.9,13.5c5.9-11.7,2.2-29.6,2.8-42.4c0.7-14.4,0.4-29-0.3-43.4
					c-0.5-9.2-1.9-18.2-1.9-27.3c0-8.5,1.6-19.1-0.7-27.3c5.6,19.1,2.9,42.8,5,62.8C432.2,559,435.5,579.5,433.8,599.5z"/>
				<path class="st25" d="M551.9,656.6c-0.1,6.7-4.7,7.1-11,8c-6.8,1-13.7,2.2-20.6,3.4c0.1-3,0.3-6.1,0.5-9.1
					c0.7,0.3,2.1,0.1,2.9,0.4c3.1-6.5,3.1-14.6,2.1-21.7c-2-14.1-2.5-28.4-6.2-42.3c-4.1-15.6-11.2-31.9-13.4-47.8
					c-1.8-13.4,2.4-29.3-2.5-42.2c6.7,14.4,6.2,30.3,11.1,45.5c3.2,9.9,6.4,19.4,8.6,29.6c1.3,5.9,3,18.2,7.7,22.1
					c2.1-7.4-0.1-20.1-1.8-28c-3.7-17.8-6.6-35.9-11-53.1c-2.4-9.5-4.3-19.5-6.1-29.3c-1.9-10.5-4-21.1-5.5-31.6
					c-0.9-6.6,0.5-14.9-1.7-21c3.4,3.5,5.8,7.8,6.9,13.7c1.4,8.3,2.7,19.1,7.7,26c1.3-5,0.4-11.4,0.4-16.7c0-9.4,2.1-21.6-0.5-30.5
					c3.2,2.4,3.9,7.9,4.7,11.8c1.8,7.6,4.4,15.3,5.6,23c3.3,20.3,0.6,41.3,4,61.5c2.2,12.9,5.7,26,9.4,38.8v0
					c0.7,15.8,1.7,31.5,3.7,47.2C548.7,627.9,552.1,643,551.9,656.6z"/>
			</g>
			<path class="st9" d="M448.6,401c-1.7-4.8-3.6-9.3-5.1-14.2c-1.8-5.7-4.1-11.1-5.8-16.9c-1.9-6.4-2.7-12-3.3-18.6
				c-0.7-7.7-0.5-15.2-2-22.7c-2-10.2-7-20.1-18.3-20.7c-1.4-0.1-2.5,0.4-4,0.3c2.1-2.3,4.2-4.4,6.4-6.6c1.9-1.9,4.2-3.8,2-5.3
				c-1.4-1-8.1,5.8-9.8,6.9c-4.2,2.7-4.5,3.4-5.6,7.9c-2.9-1-6.5-3.9-8.8-6.5c0,0,0,0-0.1,0c-0.8-0.9-2.4-2.7-3.2-1
				c-0.7,1.6,2,3.9,2.9,4.9c0.5,0.7,0.9,1.5,1.4,2.1c0.1,0.2,0.3,0.4,0.4,0.7c0.1,0.2,0.3,0.4,0.5,0.6c0.1,0.2,0.2,0.3,0.3,0.5
				c1.8,3.3,4.1,4.9,3.8,8.6c-0.3,4.3-0.1,6.7,3.8,9.9c3.5,2.9,7.8,5,11.2,7.7c2.1,3.2,1.8,9.8,2.5,13c1.2,5.4,1.8,10.9,1.6,16.4
				C419,377,420,385.9,420,395c0,4.3-0.5,9.1,0.3,13.3c0.9,4.3,3.1,8,4.9,12c1.5,3.1,3.1,7.9,5.6,10.3c2.1,2.1,7.1,3.9,10,4
				c3.7,0.1,4.3-1.9,5.6-4.8c2.5-5.3,6.4-12.1,6.1-18C452.4,408.4,449.8,404.2,448.6,401z"/>
			<path class="st26" d="M706.4,813.5h-155c-6.8,0-12.2-5.5-12.2-12.2V571.4c0-6.8,5.5-12.2,12.2-12.2h155c6.8,0,12.2,5.5,12.2,12.2
				v229.9C718.6,808,713.1,813.5,706.4,813.5z"/>
			<path class="st27" d="M687.7,799.4H570c-17.1,0-30.9-13.8-30.9-30.9v14.1c0,17.1,13.8,30.9,30.9,30.9h117.7
				c17.1,0,30.9-13.8,30.9-30.9v-14.1C718.6,785.5,704.8,799.4,687.7,799.4z"/>
			<path class="st26" d="M646.7,615.4H611c-11.4,0-20.7-9.3-20.7-20.7V438.6c0-2.4,1.9-4.3,4.3-4.3s4.3,1.9,4.3,4.3v156.2
				c0,6.7,5.4,12.1,12.1,12.1h35.7c6.7,0,12.1-5.4,12.1-12.1V438.6c0-2.4,1.9-4.3,4.3-4.3c2.4,0,4.3,1.9,4.3,4.3v156.2
				C667.4,606.1,658.1,615.4,646.7,615.4z"/>
			<path class="st27" d="M663.1,446.1c-4.1,0-7.5-3.4-7.5-7.5c0-4.9-4-8.9-8.9-8.9H611c-4.9,0-8.9,4-8.9,8.9c0,4.1-3.4,7.5-7.5,7.5
				c-4.1,0-7.5-3.4-7.5-7.5c0-13.2,10.7-23.9,23.9-23.9h35.7c13.2,0,23.9,10.7,23.9,23.9C670.6,442.7,667.2,446.1,663.1,446.1z"/>
			<path class="st28" d="M500.5,218.2c-2.7,0-5.1,1.2-6.8,3c-3.3-4.7-9-4.3-11.6-3.3c0,0,0,0,0,0c-1.4-3.3-4.7-5.6-8.5-5.6
				c-5.1,0-9.3,4.2-9.3,9.3c0,5.1,4.2,9.3,9.3,9.3s9.3-4.2,9.3-9.3c0-0.6-0.1-1.2-0.2-1.7c0,0,0.1,0,0.1,0c0.2-0.1,6-2,9.2,2.8
				c0.1,0.1,0.2,0.2,0.3,0.3c-0.8,1.4-1.3,2.9-1.3,4.6c0,5.1,4.2,9.3,9.3,9.3c5.1,0,9.3-4.2,9.3-9.3
				C509.7,222.4,505.6,218.2,500.5,218.2z"/>
			<g>
				<path class="st29" d="M576.9,586.7c-4.5,0-8.4,2.7-10.1,6.5c1.4-0.7,3-1.1,4.7-1.1c6.2,0,11.2,5,11.2,11.2v180.3
					c0,1.7-0.4,3.3-1.1,4.7c3.8-1.8,6.5-5.6,6.5-10.1V597.9C588.1,591.7,583.1,586.7,576.9,586.7z"/>
				<path class="st29" d="M609.1,586.7c-4.5,0-8.4,2.7-10.1,6.5c1.4-0.7,3-1.1,4.7-1.1c6.2,0,11.2,5,11.2,11.2v180.3
					c0,1.7-0.4,3.3-1.1,4.7c3.8-1.8,6.5-5.6,6.5-10.1V597.9C620.3,591.7,615.3,586.7,609.1,586.7z"/>
				<path class="st29" d="M641.4,586.7c-4.5,0-8.4,2.7-10.1,6.5c1.4-0.7,3-1.1,4.7-1.1c6.2,0,11.2,5,11.2,11.2v180.3
					c0,1.7-0.4,3.3-1.1,4.7c3.8-1.8,6.5-5.6,6.5-10.1V597.9C652.6,591.7,647.6,586.7,641.4,586.7z"/>
				<path class="st29" d="M673.7,586.7c-4.5,0-8.4,2.7-10.1,6.5c1.4-0.7,3-1.1,4.7-1.1c6.2,0,11.2,5,11.2,11.2v180.3
					c0,1.7-0.4,3.3-1.1,4.7c3.8-1.8,6.5-5.6,6.5-10.1V597.9C684.9,591.7,679.8,586.7,673.7,586.7z"/>
			</g>
			<path class="st29" d="M684.5,799.5H573.2c-12.2,0-22.1-9.9-22.1-22.1V595.3c0-12.2,9.9-22.1,22.1-22.1h111.3
				c12.2,0,22.1,9.9,22.1,22.1v182.1C706.6,789.6,696.7,799.5,684.5,799.5z M573.2,575.2c-11.1,0-20.1,9-20.1,20.1v182.1
				c0,11.1,9,20.1,20.1,20.1h111.3c11.1,0,20.1-9,20.1-20.1V595.3c0-11.1-9-20.1-20.1-20.1H573.2z"/>
			<g>
				<g>
					<rect x="570.4" y="813.3" class="st26" width="6.4" height="3.6"/>
					<path class="st27" d="M578.7,832.4h-10c-0.9,0-1.7-0.7-1.7-1.7v-12.2c0-0.9,0.7-1.7,1.7-1.7h10c0.9,0,1.7,0.7,1.7,1.7v12.2
						C580.3,831.7,579.6,832.4,578.7,832.4z"/>
				</g>
				<g>
					<rect x="680.8" y="813.3" class="st26" width="6.4" height="3.6"/>
					<path class="st27" d="M689.1,832.4h-10c-0.9,0-1.7-0.7-1.7-1.7v-12.2c0-0.9,0.7-1.7,1.7-1.7h10c0.9,0,1.7,0.7,1.7,1.7v12.2
						C690.7,831.7,690,832.4,689.1,832.4z"/>
				</g>
			</g>
			<g>
				<path class="st30" d="M455.6,322.2c0.2,0,0.5,0.1,0.7,0.1C456.1,322.3,455.9,322.2,455.6,322.2z"/>
				<path class="st30" d="M550.8,311.3c-1.7-2.9-3.1-7.1-3.3-10.5c-0.3-4.4,2.3-8.3,1.6-12.6c-0.6-3.7-3.1-6-5.1-8.6
					c3.3,2.6,7.5,5.8,7.6,10.5c0.5-1.8-1.1-5.8-1.9-7.5c-1.7-3.4-5.6-7-8.7-9.2c-3.5-2.5-6.8-3.3-7.7-8c-0.7-3.6-0.6-7.3,0.8-10.7
					c-1.9,5.2,2.4,8.1,2.6,12.9c0-2.7-1.2-4.8-1.6-7.4c-0.4-2.2,0.7-4.3,0.5-6.5c-0.1-2-1.3-4.1-2.3-5.8c-2-3.3-5.6-5.2-7.2-8.8
					c-1.5-3.4-1.9-7.3-2.2-11.1c0.4,2.3,1.1,4.6,2,6.6c1.5,3.6,5.7,6.2,6.1,10.1c0.1-2.9-1.5-5.5-3.1-7.8c-2.6-3.5-2.7-6.9-3.4-11.1
					c-1.1-6.1-4.3-11.8-8.3-16.6c3.1,3.3,7,6.3,7.9,11.1c0.1-1.7-1.3-3.8-1.9-5.4c-1-2.6-2.5-4.7-4.4-6.7c-4.2-4.2-8.6-6.7-11-12.5
					c-1.1-2.7-3.8-6.3-7.1-6.5c-2.5-0.1-4.7,0.8-7.4,0.3c-1.9-0.3-4-0.8-5.9-0.6c-0.3-1.4-1.1-2.9-2.9-3.5
					c-4.2-0.6-7.3,3.9-10.8,5.3c-3.6,1.4-7.3,1.8-10.7,3.8c-3.4,2-6.4,5.9-8.2,9.4c-2.9,5.5-1.8,12.1-5,17.5
					c-2.8,4.7-4.8,8.6-5,14.2c-0.3,6.5,1.6,13.4-0.6,19.7c2.6-1.1,1.9-9.4,2.2-11.8c0.4-3.1,0.9-11.1,5-11.7
					c-3.6,4.8-3.1,11.5-2.8,17c0.3,7.3-0.9,11.9-6.2,16.6c4.6-0.3,8.4-9.8,8.3-13.6c1.6,4.5-1,12.7-3.4,16.6
					c-2.3,3.9-6,6.8-8.2,10.7c-1.7,3-2.4,6.4-2.6,9.9c-0.1,2.5,0.2,5.6,0.2,7.8c-0.4-4.8,2.8-11.5,7-13.8c-5.5,4.8-3.7,12.2-5,18.5
					c-0.8,4-3.8,6.1-5,9.7c-1.3,3.9-0.6,8.5,1.7,11.9c1.1,1.6,3.5,4,5.4,3.3c-5.7,0.5-3.7-10.3,0-11.9c4.2-1.8,6.3,1.1,8.4,3.9
					c1.7,2.2,4,3.4,6.7,3.6c-1.6-0.3-3.7-1.7-4.2-3c-0.7-1.9,0.6-3.3,2.6-2.9c1.9,0.4,3,2.8,4.6,3.7c2.3,1.4,5.2,1.6,7.5,0.2
					c-7.5,0.9-3.9-8-1.9-11.3c3-5,4.5-10.5,3.7-16.5c0.7,4.6,2.9,7.7,0.6,12.5c1.7-2.2,2.8-6,3.6-8.6c1-3.4,1.4-7.3,0.6-10.8
					c-1.6-6.7-8.1-10.2-7.9-17.5c-0.3,1.3,2.2,3.8,3.1,5c1.6,2.1,2.7,3.9,3.6,6.4c1.1-2.7-2-6.7-3.5-8.7c-2.4-3.3-2.7-6.2-2.7-10.3
					c-0.1-5.7-5.5-9-4.8-15c0.3-2.4,0.9-4.6,0.7-7.1c-0.3-3-0.8-6.1-1.1-9.1c-0.5-6,1.6-9.6,6.3-13.5c3.7-3,7.8-4.8,10.6-8.9
					c2-2.9,4.4-5.7,6-8.9c-1.4,6.2-5.8,11.6-10.2,16.1c4-3.3,7.4-7.6,10.2-11.9c1-1.5,1.4-3.2,1.8-4.8c0.4,0.5,0.9,1.7,1.4,2
					c1.6,1,2.1,0.8,3.8,1.5c1.1,0.5,2.6,2.1,4,2.8c3,1.3,4.8,0.4,5.4,1.2c1.1,1.5,1.4,3.7,2,5.4c1,3.1,2.6,5.2,4.4,7.8
					c-1.6-2.2-5.7-9.9-3.5-12.6c1.1,2.6,2.4,5.1,3.5,7.7c1.6,3.8,4.1,7.3,3.9,11.5c1.4-4.1-1.1-9.6-2.7-13.3c2,3.1,3.7,6.8,4.6,10.5
					c0.6,2.5,0.4,5.1,0.3,7.3c-0.1,3.8,2.8,6,3.6,9.5c0.9,3.7-0.5,6.8-4,8.4c-1.5,0.7-3.2,0.6-4.7,1.3c-2.2,1-4.2,3.3-5.5,5.2
					c-2.2,3.2-5.1,8.2-5.8,12c-0.7,3.8,1.6,9.4-1.7,12.3c4.1-2.6,1.6-7.4,3.9-10.6c-0.1,4.6,0.5,9.3,2.2,13.7
					c0.9,2.3,1.6,4.2,3.3,5.9c1,1,2.3,1.8,3.5,2.6c-2.6-2.3-4.6-6.3-5.4-10.1c1.9,2.6,4.9,4.5,7.5,6.4c0.6,0.8,1.2,1.6,1.7,2.5
					c1,2,0.3,3.5-0.3,5.3c0,0,0.1-0.1,0.1-0.1c-0.4,1.3-0.6,2.6-0.8,4c0.3-1.5,1-3,2-4c0.9-0.9,2-1.2,2.8-2.3c0.6-0.9,0.8-2,1.4-2.9
					c0.3,5.1-4.7,9.7-5,15c-0.4,6,2.4,10.2,7.2,13.4c-3.6-2.2-4.4-8.1-1.6-11.2c-0.2,1.8-0.5,4.4,0.5,6.1c1.3,2.4,4.4,3,6,5.1
					c1.5,1.9,1.4,4,1.9,6.2c0.9,4.1,2.7,6.5,6.8,7.6c-4.1-1.4-7-7-4.4-11c1.3,7.3,10.1,12.3,16.9,10.2c-5.4-1.3-7.8-4.3-9.1-9.8
					c-0.8-3.5-1.1-6.7-0.5-10.2c0.5-2.8,0.8-5.3,0.8-8.1c0,1.7,0,3.4,0.3,5c0.5,3,2.2,4.5,4,6.8c1.6,2.2,3.8,5.5,5.4,15
					c0.2-2.2-1.2-10-1.8-11.9c-0.9-2.6-2.7-4.8-4-6.8c6.5,4,10.9,16.1,8,23c3.3-4.9,1.4-12.3-0.5-17.4c-1.3-3.4-4.3-10-1.5-13.4
					c-0.1,6.9,7.5,17,15,16.1C556.4,316.7,552.8,314.9,550.8,311.3z"/>
			</g>
		</g>
	</g>
</g>
</svg>
